<svg width="19" height="20" viewBox="0 0 19 20" fill="none" xmlns="http://www.w3.org/2000/svg">
<path d="M5.25 2.5625C2.68512 4.02556 1 6.83588 1 10C1 11.6811 1.49852 13.3245 2.43251 14.7223C3.3665 16.1202 4.69402 17.2096 6.24719 17.853C7.80036 18.4963 9.50943 18.6647 11.1583 18.3367C12.8071 18.0087 14.3217 17.1992 15.5104 16.0104C16.6992 14.8217 17.5087 13.3071 17.8367 11.6583C18.1647 10.0094 17.9963 8.30036 17.353 6.74719C16.7096 5.19402 15.6202 3.8665 14.2223 2.93251C12.8245 1.99852 11.1811 1.5 9.5 1.5" stroke="white" stroke-width="1.5" stroke-linecap="round" stroke-linejoin="round"/>
<path d="M5.25 6.8125V2.5625H1" stroke="white" stroke-width="1.5" stroke-linecap="round" stroke-linejoin="round"/>
<path d="M10.5525 8.6395H7.8725V10.2315C7.9845 10.0822 8.14983 9.95683 8.3685 9.8555C8.5925 9.75417 8.82983 9.7035 9.0805 9.7035C9.5285 9.7035 9.89117 9.7995 10.1685 9.9915C10.4512 10.1835 10.6512 10.4262 10.7685 10.7195C10.8912 11.0128 10.9525 11.3222 10.9525 11.6475C10.9525 12.0422 10.8752 12.3942 10.7205 12.7035C10.5712 13.0075 10.3445 13.2475 10.0405 13.4235C9.74183 13.5995 9.37383 13.6875 8.9365 13.6875C8.35517 13.6875 7.8885 13.5435 7.5365 13.2555C7.1845 12.9675 6.97383 12.5862 6.9045 12.1115H7.7925C7.85117 12.3622 7.98183 12.5622 8.1845 12.7115C8.38717 12.8555 8.6405 12.9275 8.9445 12.9275C9.32317 12.9275 9.60583 12.8128 9.7925 12.5835C9.9845 12.3542 10.0805 12.0502 10.0805 11.6715C10.0805 11.2875 9.9845 10.9942 9.7925 10.7915C9.6005 10.5835 9.31783 10.4795 8.9445 10.4795C8.68317 10.4795 8.46183 10.5462 8.2805 10.6795C8.1045 10.8075 7.9765 10.9835 7.8965 11.2075H7.0325V7.8395H10.5525V8.6395Z" fill="white"/>
</svg>
