<svg width="31" height="25" viewBox="0 0 31 25" fill="none" xmlns="http://www.w3.org/2000/svg">
<path d="M16.1639 0.128595C15.9122 0.0186952 15.6361 -0.021834 15.3639 0.0111429C15.0916 0.0441198 14.8329 0.149422 14.6141 0.316302L7.20632 6.22908H1.54975C1.13873 6.22908 0.744544 6.39388 0.45391 6.68723C0.163276 6.98058 0 7.37845 0 7.79331V17.1787C0 17.5935 0.163276 17.9914 0.45391 18.2847C0.744544 18.5781 1.13873 18.7429 1.54975 18.7429H7.20632L14.5366 24.6557C14.8093 24.8765 15.1479 24.9978 15.4975 24.9998C15.7289 25.0037 15.9578 24.9499 16.1639 24.8434C16.4276 24.7166 16.6504 24.5172 16.8067 24.2681C16.963 24.019 17.0464 23.7304 17.0472 23.4356V1.5364C17.0464 1.24156 16.963 0.952968 16.8067 0.703884C16.6504 0.454801 16.4276 0.255373 16.1639 0.128595ZM13.9477 20.182L8.70958 15.9586C8.43691 15.7378 8.0983 15.6165 7.74873 15.6144H3.09949V9.35753H7.74873C8.0983 9.35549 8.43691 9.23421 8.70958 9.0134L13.9477 4.78999V20.182ZM27.3685 3.63246C27.0767 3.33791 26.6809 3.17244 26.2682 3.17244C25.8555 3.17244 25.4597 3.33791 25.1679 3.63246C24.8761 3.92701 24.7121 4.32651 24.7121 4.74306C24.7121 5.15962 24.8761 5.55912 25.1679 5.85367C26.0805 6.77333 26.7935 7.87454 27.2618 9.08732C27.73 10.3001 27.9433 11.5979 27.8879 12.8983C27.8325 14.1988 27.5097 15.4733 26.9401 16.6411C26.3704 17.8088 25.5664 18.8442 24.579 19.6814C24.3392 19.8884 24.1677 20.1643 24.0874 20.4723C24.0071 20.7802 24.0218 21.1056 24.1297 21.4049C24.2375 21.7042 24.4332 21.9631 24.6908 22.1471C24.9483 22.3311 25.2553 22.4313 25.5708 22.4345C25.9329 22.4352 26.2838 22.3079 26.5627 22.0747C27.8814 20.9599 28.9559 19.5802 29.7177 18.0236C30.4796 16.4669 30.9122 14.7672 30.988 13.0326C31.0638 11.2981 30.7811 9.56657 30.158 7.94824C29.5349 6.3299 28.5849 4.86015 27.3685 3.63246ZM22.9827 8.05923C22.8382 7.91338 22.6667 7.79769 22.4779 7.71876C22.2891 7.63983 22.0868 7.5992 21.8824 7.5992C21.6781 7.5992 21.4757 7.63983 21.2869 7.71876C21.0981 7.79769 20.9266 7.91338 20.7821 8.05923C20.6376 8.20507 20.523 8.37822 20.4448 8.56877C20.3666 8.75933 20.3263 8.96357 20.3263 9.16983C20.3263 9.37609 20.3666 9.58032 20.4448 9.77088C20.523 9.96144 20.6376 10.1346 20.7821 10.2804C21.3642 10.8644 21.693 11.6576 21.6965 12.486C21.6968 12.9417 21.5985 13.392 21.4085 13.8054C21.2184 14.2188 20.9412 14.5853 20.5961 14.8793C20.4392 15.0106 20.3095 15.1718 20.2144 15.3538C20.1193 15.5358 20.0608 15.735 20.042 15.9398C20.0233 16.1447 20.0448 16.3513 20.1053 16.5478C20.1659 16.7443 20.2642 16.9268 20.3947 17.0848C20.5259 17.2421 20.6865 17.3717 20.8673 17.4662C21.0482 17.5608 21.2457 17.6184 21.4487 17.6359C21.6516 17.6533 21.856 17.6302 22.0501 17.5678C22.2442 17.5055 22.4242 17.4051 22.5798 17.2725C23.2727 16.6861 23.8301 15.9538 24.213 15.1269C24.5958 14.3001 24.7948 13.3987 24.7959 12.486C24.7872 10.8281 24.1364 9.23936 22.9827 8.05923Z" fill="white"/>
</svg>
