<svg width="20" height="18" viewBox="0 0 20 18" fill="none" xmlns="http://www.w3.org/2000/svg">
<path d="M2.22222 0.00271606C1.61111 0.00271606 1.11111 0.205216 0.655555 0.643966C0.222222 1.08272 0 1.62272 0 2.25272V15.7527C0 16.3827 0.222222 16.9227 0.655555 17.3615C1.11111 17.8002 1.61111 18.0027 2.22222 18.0027H17.7778C18.3333 18.0027 18.8889 17.789 19.3222 17.339C19.7778 16.8777 20 16.349 20 15.7527V2.25272C20 1.65647 19.7778 1.12772 19.3222 0.666466C18.8889 0.216466 18.3333 0.00271606 17.7778 0.00271606H2.22222ZM1.66667 1.69022H18.3333V16.3152H1.66667V1.69022ZM4.44444 5.62772C4.11111 5.62772 3.85556 5.72897 3.64444 5.94272C3.43333 6.15647 3.33333 6.41522 3.33333 6.75272V11.2527C3.33333 11.5902 3.43333 11.849 3.64444 12.0627C3.85556 12.2765 4.11111 12.3777 4.44444 12.3777H7.77778C8.07778 12.3777 8.33333 12.2765 8.56667 12.0627C8.78889 11.849 8.88889 11.5902 8.88889 11.2527V10.1277H7.22222V10.6902H5V7.31522H7.22222V7.87772H8.88889V6.75272C8.88889 6.41522 8.78889 6.15647 8.56667 5.94272C8.33333 5.72897 8.07778 5.62772 7.77778 5.62772H4.44444ZM12.2222 5.62772C11.9222 5.62772 11.6667 5.72897 11.4333 5.94272C11.2111 6.15647 11.1111 6.41522 11.1111 6.75272V11.2527C11.1111 11.5902 11.2111 11.849 11.4333 12.0627C11.6667 12.2765 11.9222 12.3777 12.2222 12.3777H15.5556C15.8889 12.3777 16.1444 12.2765 16.3556 12.0627C16.5667 11.849 16.6667 11.5902 16.6667 11.2527V10.1277H15V10.6902H12.7778V7.31522H15V7.87772H16.6667V6.75272C16.6667 6.41522 16.5667 6.15647 16.3556 5.94272C16.1444 5.72897 15.8889 5.62772 15.5556 5.62772H12.2222Z" fill="white"/>
</svg>
